<svg xmlns="http://www.w3.org/2000/svg" viewBox="0 0 48 48" role="img" aria-label="Google">
  <path fill="#EA4335" d="M24 9.5c3.5 0 6.6 1.2 9.1 3.6l6.8-6.8C35.8 2.5 30.5.2 24 .2 14.6.2 6.5 5.6 2.6 13.5l7.9 6.1C12.4 13.7 17.7 9.5 24 9.5z"/>
  <path fill="#4285F4" d="M47.5 24.5c0-1.7-.2-3.4-.5-5H24v9.4h13.2c-.6 3-2.3 5.6-4.8 7.3l7.6 5.9c4.5-4.1 7.5-10.2 7.5-17.6z"/>
  <path fill="#FBBC05" d="M10.5 28.4c-.5-1.5-.8-3-.8-4.7s.3-3.2.8-4.7l-7.9-6.1C1 16.2.1 19.8.1 23.7s.9 7.5 2.5 10.8l7.9-6.1z"/>
  <path fill="#34A853" d="M24 47.3c6.5 0 12-2.1 16-5.8l-7.6-5.9c-2.1 1.4-4.8 2.3-8.4 2.3-6.3 0-11.6-4.2-13.5-9.9l-7.9 6.1C6.5 41.9 14.6 47.3 24 47.3z"/>
</svg>
